<?xml version="1.0" encoding="utf-8"?>
<!-- Generator: Adobe Illustrator 25.2.0, SVG Export Plug-In . SVG Version: 6.00 Build 0)  -->
<svg version="1.1" id="Layer_1" xmlns="http://www.w3.org/2000/svg" xmlns:xlink="http://www.w3.org/1999/xlink" x="0px" y="0px"
	 viewBox="0 0 2000 2000" style="enable-background:new 0 0 2000 2000;" xml:space="preserve">
<style type="text/css">
	.st0{display:none;fill:#FFFFFF;stroke:#1D1D1B;stroke-miterlimit:10;}
	.st1{fill:#14A395;}
</style>
<rect class="st0" width="2000" height="2000"/>
<g>
	<path class="st1" d="M1042.55,743.92c1.08,0.84,2.41,1.27,3.98,1.27c1.6,0,2.95-0.42,4.03-1.27c1.08-0.84,1.89-2.03,2.45-3.57
		c0.55-1.54,0.84-3.3,0.87-5.29c-0.03-1.94-0.32-3.65-0.87-5.13c-0.55-1.48-1.37-2.64-2.45-3.49c-1.08-0.84-2.42-1.26-4.03-1.26
		c-1.58,0-2.91,0.42-3.98,1.26c-1.08,0.84-1.9,2.01-2.45,3.51c-0.55,1.49-0.83,3.24-0.83,5.23c0,1.94,0.28,3.67,0.83,5.19
		C1040.65,741.89,1041.47,743.08,1042.55,743.92z"/>
	<path class="st1" d="M997.76,1183.33c-0.03-1.94-0.32-3.65-0.87-5.13c-0.55-1.48-1.37-2.64-2.45-3.49
		c-1.08-0.84-2.42-1.26-4.02-1.26c-1.58,0-2.91,0.42-3.98,1.26c-1.08,0.84-1.9,2.01-2.45,3.51c-0.55,1.49-0.83,3.24-0.83,5.23
		c0,0.1,0.01,0.19,0.01,0.29h14.57C997.73,1183.6,997.76,1183.47,997.76,1183.33z"/>
	<path class="st1" d="M816.34,975.48c-1.08-0.84-2.42-1.26-4.03-1.26c-1.58,0-2.91,0.42-3.98,1.26c-1.08,0.84-1.9,2.01-2.45,3.51
		c-0.55,1.49-0.83,3.24-0.83,5.23c0,1.94,0.28,3.67,0.83,5.19c0.55,1.52,1.37,2.7,2.45,3.55c1.08,0.84,2.41,1.27,3.98,1.27
		c1.6,0,2.95-0.42,4.03-1.27c1.08-0.84,1.89-2.03,2.45-3.57c0.55-1.54,0.84-3.3,0.87-5.29c-0.03-1.94-0.32-3.65-0.87-5.13
		C818.24,977.49,817.42,976.33,816.34,975.48z"/>
	<path class="st1" d="M808.33,843.54c1.08,0.84,2.41,1.27,3.98,1.27c1.6,0,2.95-0.42,4.03-1.27c1.08-0.84,1.89-2.03,2.45-3.57
		c0.55-1.54,0.84-3.3,0.87-5.29c-0.03-1.94-0.32-3.65-0.87-5.13c-0.55-1.48-1.37-2.64-2.45-3.49c-1.08-0.84-2.42-1.26-4.03-1.26
		c-1.58,0-2.91,0.42-3.98,1.26c-1.08,0.84-1.9,2.01-2.45,3.51c-0.55,1.49-0.83,3.24-0.83,5.23c0,1.94,0.28,3.67,0.83,5.19
		C806.44,841.51,807.25,842.69,808.33,843.54z"/>
	<path class="st1" d="M1144.15,1133.52c-0.03-1.94-0.32-3.65-0.87-5.13c-0.55-1.48-1.37-2.64-2.45-3.49
		c-1.08-0.84-2.42-1.26-4.02-1.26c-1.58,0-2.91,0.42-3.98,1.26c-1.08,0.84-1.9,2.01-2.45,3.51c-0.55,1.49-0.83,3.24-0.83,5.23
		c0,1.94,0.28,3.67,0.83,5.19c0.55,1.52,1.37,2.7,2.45,3.55c1.08,0.84,2.41,1.27,3.98,1.27c1.6,0,2.95-0.42,4.02-1.27
		c1.08-0.84,1.89-2.03,2.45-3.57C1143.84,1137.28,1144.13,1135.51,1144.15,1133.52z"/>
	<path class="st1" d="M838.3,1124.91c-1.08-0.84-2.42-1.26-4.03-1.26c-0.44,0-0.86,0.04-1.26,0.11l8.06,5.85
		c-0.11-0.4-0.18-0.84-0.32-1.21C840.19,1126.91,839.38,1125.75,838.3,1124.91z"/>
	<path class="st1" d="M1053.17,1129.03c-0.06-0.2-0.09-0.44-0.17-0.63c-0.55-1.48-1.37-2.64-2.45-3.49
		c-1.08-0.84-2.42-1.26-4.03-1.26c-1.58,0-2.91,0.42-3.98,1.26c-1.08,0.84-1.9,2.01-2.45,3.51c-0.55,1.49-0.83,3.24-0.83,5.23
		c0,1.94,0.28,3.67,0.83,5.19c0.55,1.52,1.37,2.7,2.45,3.55c0.36,0.28,0.75,0.49,1.16,0.68l5.94-13.11
		C1050.83,1129.66,1052,1129.33,1053.17,1129.03z"/>
	<path class="st1" d="M1177.44,1039.2c0.55-1.54,0.84-3.3,0.87-5.29c-0.03-1.94-0.32-3.64-0.87-5.13c-0.55-1.48-1.37-2.64-2.45-3.49
		c-1.08-0.84-2.42-1.27-4.03-1.27c-1.58,0-2.91,0.42-3.98,1.27c-1.08,0.84-1.9,2.01-2.45,3.51c-0.55,1.49-0.83,3.24-0.83,5.23
		c0,1.94,0.28,3.67,0.83,5.19c0.55,1.52,1.37,2.7,2.45,3.55c1.08,0.84,2.41,1.27,3.98,1.27c1.6,0,2.95-0.42,4.03-1.27
		c0.48-0.37,0.9-0.83,1.27-1.34c0.16-0.23,0.3-0.48,0.46-0.71C1176.99,1040.25,1177.24,1039.76,1177.44,1039.2z"/>
	<path class="st1" d="M896.86,1128.39c-0.55-1.48-1.37-2.64-2.45-3.49c-1.08-0.84-2.42-1.26-4.03-1.26c-1.58,0-2.91,0.42-3.98,1.26
		c-1.08,0.84-1.9,2.01-2.45,3.51c-0.55,1.49-0.83,3.24-0.83,5.23c0,1.94,0.28,3.67,0.83,5.19c0.09,0.26,0.2,0.49,0.31,0.73
		l13.33-7.58C897.47,1130.68,897.26,1129.46,896.86,1128.39z"/>
	<path class="st1" d="M1132.82,743.92c1.08,0.84,2.41,1.27,3.98,1.27c1.6,0,2.95-0.42,4.02-1.27c1.08-0.84,1.89-2.03,2.45-3.57
		c0.55-1.54,0.84-3.3,0.87-5.29c-0.03-1.94-0.32-3.65-0.87-5.13c-0.55-1.48-1.37-2.64-2.45-3.49c-1.08-0.84-2.42-1.26-4.02-1.26
		c-1.58,0-2.91,0.42-3.98,1.26c-1.08,0.84-1.9,2.01-2.45,3.51c-0.55,1.49-0.83,3.24-0.83,5.23c0,1.94,0.28,3.67,0.83,5.19
		C1130.93,741.89,1131.74,743.08,1132.82,743.92z"/>
	<path class="st1" d="M1132.82,793.73c1.08,0.84,2.41,1.27,3.98,1.27c1.6,0,2.95-0.42,4.02-1.27c1.08-0.84,1.89-2.03,2.45-3.57
		c0.55-1.54,0.84-3.3,0.87-5.29c-0.03-1.94-0.32-3.64-0.87-5.13c-0.55-1.48-1.37-2.64-2.45-3.49c-1.08-0.84-2.42-1.27-4.02-1.27
		c-1.58,0-2.91,0.42-3.98,1.27c-1.08,0.84-1.9,2.01-2.45,3.51c-0.55,1.49-0.83,3.24-0.83,5.23c0,1.94,0.28,3.67,0.83,5.19
		C1130.93,791.7,1131.74,792.88,1132.82,793.73z"/>
	<path class="st1" d="M838.3,875.87c-1.08-0.84-2.42-1.27-4.03-1.27c-1.58,0-2.91,0.42-3.98,1.27c-1.08,0.84-1.9,2.01-2.45,3.51
		c-0.55,1.49-0.83,3.24-0.83,5.23c0,1.94,0.28,3.67,0.83,5.19c0.55,1.52,1.37,2.7,2.45,3.55c1.08,0.84,2.41,1.27,3.98,1.27
		c1.6,0,2.95-0.42,4.03-1.27c1.08-0.84,1.89-2.03,2.45-3.57c0.55-1.54,0.84-3.3,0.87-5.29c-0.03-1.94-0.32-3.65-0.87-5.13
		C840.19,877.88,839.38,876.71,838.3,875.87z"/>
	<path class="st1" d="M838.3,925.68c-1.08-0.84-2.42-1.27-4.03-1.27c-1.58,0-2.91,0.42-3.98,1.27c-1.08,0.84-1.9,2.01-2.45,3.51
		c-0.55,1.49-0.83,3.24-0.83,5.23c0,1.94,0.28,3.67,0.83,5.19c0.55,1.52,1.37,2.7,2.45,3.55c1.08,0.84,2.41,1.27,3.98,1.27
		c1.6,0,2.95-0.42,4.03-1.27c1.08-0.84,1.89-2.03,2.45-3.57c0.55-1.54,0.84-3.3,0.87-5.29c-0.03-1.94-0.32-3.65-0.87-5.13
		C840.19,927.68,839.38,926.52,838.3,925.68z"/>
	<path class="st1" d="M819.57,1034.96c0.02-0.36,0.08-0.68,0.09-1.05c-0.03-1.94-0.32-3.64-0.87-5.13
		c-0.55-1.48-1.37-2.64-2.45-3.49c-1.08-0.84-2.42-1.27-4.03-1.27c-1.58,0-2.91,0.42-3.98,1.27c-1.08,0.84-1.9,2.01-2.45,3.51
		c-0.47,1.28-0.73,2.75-0.8,4.4l14.39,1.61C819.51,1034.86,819.54,1034.91,819.57,1034.96z"/>
	<path class="st1" d="M1076.71,743.92c1.08,0.84,2.41,1.27,3.98,1.27c1.6,0,2.95-0.42,4.03-1.27c1.08-0.84,1.89-2.03,2.45-3.57
		c0.55-1.54,0.84-3.3,0.87-5.29c-0.03-1.94-0.32-3.65-0.87-5.13c-0.55-1.48-1.37-2.64-2.45-3.49c-0.15-0.11-0.31-0.2-0.46-0.3
		l-3.34,1.9c-1.37-0.57-2.77-1.09-4.16-1.63c-0.02,0.01-0.03,0.02-0.05,0.03c-1.08,0.84-1.9,2.01-2.45,3.51
		c-0.55,1.49-0.83,3.24-0.83,5.23c0,1.94,0.28,3.67,0.83,5.19C1074.81,741.89,1075.63,743.08,1076.71,743.92z"/>
	<path class="st1" d="M1137.16,994.2c1.45-0.06,2.68-0.46,3.68-1.24c1.08-0.84,1.89-2.03,2.45-3.57c0.55-1.54,0.84-3.3,0.87-5.29
		c-0.02-1.51-0.25-2.84-0.59-4.07C1141.66,984.88,1139.52,989.61,1137.16,994.2z"/>
	<path class="st1" d="M1116.87,1024.3c-2.95,3.42-6.04,6.72-9.28,9.87c0.01,1.88,0.28,3.56,0.83,5.05c0.55,1.52,1.37,2.7,2.45,3.55
		c1.08,0.84,2.41,1.27,3.98,1.27c1.6,0,2.95-0.42,4.02-1.27c1.08-0.84,1.89-2.03,2.45-3.57c0.55-1.54,0.84-3.3,0.87-5.29
		c-0.03-1.94-0.32-3.64-0.87-5.13c-0.55-1.48-1.37-2.64-2.45-3.49C1118.29,1024.83,1117.61,1024.51,1116.87,1024.3z"/>
	<path class="st1" d="M1024.58,675.37c-1.58,0-2.91,0.42-3.98,1.26c-1.08,0.84-1.9,2.01-2.45,3.51c-0.55,1.49-0.83,3.24-0.83,5.23
		c0,1.94,0.28,3.67,0.83,5.19c0.55,1.52,1.37,2.7,2.45,3.55c1.08,0.84,2.41,1.27,3.98,1.27c1.6,0,2.95-0.42,4.02-1.27
		c1.08-0.84,1.89-2.03,2.45-3.57c0.55-1.54,0.84-3.3,0.87-5.29c-0.03-1.94-0.32-3.65-0.87-5.13c-0.55-1.48-1.37-2.64-2.45-3.49
		C1027.52,675.8,1026.18,675.37,1024.58,675.37z"/>
	<path class="st1" d="M1167.2,793.87c-0.77-0.98-1.55-1.95-2.33-2.92c0.53,1.15,1.23,2.09,2.12,2.78
		C1167.05,793.78,1167.13,793.82,1167.2,793.87z"/>
	<path class="st1" d="M778.16,894.61c1.6,0,2.95-0.42,4.02-1.27c1.08-0.84,1.89-2.03,2.45-3.57c0.55-1.54,0.84-3.3,0.87-5.29
		c-0.03-1.94-0.32-3.65-0.87-5.13c-0.55-1.48-1.37-2.64-2.45-3.49c-1.08-0.84-2.42-1.27-4.02-1.27c-1.58,0-2.91,0.42-3.98,1.27
		c-1.08,0.84-1.9,2.01-2.45,3.51c-0.55,1.49-0.83,3.24-0.83,5.23c0,1.94,0.28,3.67,0.83,5.19c0.55,1.52,1.37,2.7,2.45,3.55
		C775.25,894.19,776.58,894.61,778.16,894.61z"/>
	<path class="st1" d="M760.23,843.54c1.08-0.84,1.89-2.03,2.45-3.57c0.55-1.54,0.84-3.3,0.87-5.29c-0.03-1.94-0.32-3.65-0.87-5.13
		c-0.55-1.48-1.37-2.64-2.45-3.49c-0.42-0.33-0.89-0.57-1.39-0.77l-6.05,18.62c0.97,0.59,2.1,0.89,3.41,0.89
		C757.81,844.8,759.15,844.38,760.23,843.54z"/>
	<path class="st1" d="M830.29,743.92c1.08,0.84,2.41,1.27,3.98,1.27c1.6,0,2.95-0.42,4.03-1.27c1.08-0.84,1.89-2.03,2.45-3.57
		c0.55-1.54,0.84-3.3,0.87-5.29c-0.03-1.94-0.32-3.65-0.87-5.13c-0.55-1.48-1.37-2.64-2.45-3.49c-1.08-0.84-2.42-1.26-4.03-1.26
		c-1.58,0-2.91,0.42-3.98,1.26c-1.08,0.84-1.9,2.01-2.45,3.51c-0.17,0.46-0.3,0.94-0.42,1.44l2.51,12.19
		C830.04,743.7,830.16,743.82,830.29,743.92z"/>
	<path class="st1" d="M962.92,1090.82c0.44,0.69,0.95,1.28,1.56,1.75c1.08,0.84,2.41,1.27,3.98,1.27c1.6,0,2.95-0.42,4.03-1.27
		c1.08-0.84,1.89-2.03,2.45-3.57c0.55-1.54,0.84-3.3,0.87-5.29c-0.03-1.94-0.32-3.65-0.87-5.13c-0.55-1.48-1.37-2.64-2.45-3.49
		c-1.08-0.84-2.42-1.26-4.03-1.26c-1.58,0-2.91,0.42-3.98,1.26c-0.61,0.48-1.13,1.07-1.57,1.76c-0.34,0.53-0.64,1.1-0.88,1.75
		c-0.55,1.49-0.83,3.24-0.83,5.23c0,1.94,0.28,3.67,0.83,5.19C962.27,1089.69,962.57,1090.28,962.92,1090.82z"/>
	<path class="st1" d="M968.46,695.38c1.6,0,2.95-0.42,4.03-1.27c1.08-0.84,1.89-2.03,2.45-3.57c0.55-1.54,0.84-3.3,0.87-5.29
		c-0.03-1.94-0.32-3.65-0.87-5.13c-0.55-1.48-1.37-2.64-2.45-3.49c-0.82-0.64-1.79-1.03-2.91-1.19l-7.21,15.9
		c0.53,1.14,1.23,2.07,2.11,2.76C965.55,694.96,966.88,695.38,968.46,695.38z"/>
	<path class="st1" d="M1223.1,992.96c1.08,0.84,2.41,1.27,3.98,1.27c1.6,0,2.95-0.42,4.03-1.27c1.08-0.84,1.89-2.03,2.45-3.57
		c0.55-1.54,0.84-3.3,0.87-5.29c-0.03-1.94-0.32-3.65-0.87-5.13c-0.55-1.48-1.37-2.64-2.45-3.49c-1.08-0.84-2.42-1.26-4.03-1.26
		c-1.58,0-2.91,0.42-3.98,1.26c-1.08,0.84-1.9,2.01-2.45,3.51c-0.55,1.49-0.83,3.24-0.83,5.23c0,1.94,0.28,3.67,0.83,5.19
		C1221.2,990.93,1222.02,992.11,1223.1,992.96z"/>
	<path class="st1" d="M1209.15,875.87c-1.08-0.84-2.42-1.27-4.03-1.27c-1.58,0-2.91,0.42-3.98,1.27c-1.08,0.84-1.9,2.01-2.45,3.51
		c-0.55,1.49-0.83,3.24-0.83,5.23c0,1.94,0.28,3.67,0.83,5.19c0.55,1.52,1.37,2.7,2.45,3.55c1.08,0.84,2.41,1.27,3.98,1.27
		c1.6,0,2.95-0.42,4.03-1.27c1.08-0.84,1.89-2.03,2.45-3.57c0.55-1.54,0.84-3.3,0.87-5.29c-0.03-1.94-0.32-3.65-0.87-5.13
		C1211.04,877.88,1210.23,876.71,1209.15,875.87z"/>
	<path class="st1" d="M1254.92,867.65l-9.45-29.09v9.99h-4.03v-22.38l-0.34-1.03h-2.78v-3.9h1.51l-0.53-1.64l-58.78-6.58
		c-2.99-4.85-6.18-9.57-9.55-14.15c-1.68,0-3.22-0.31-4.62-0.93c-1.41-0.62-2.62-1.54-3.63-2.76c-1.01-1.22-1.79-2.68-2.35-4.4
		c-0.55-1.72-0.83-3.64-0.83-5.77c0-2.33,0.26-4.35,0.79-6.08c0.52-1.73,1.29-3.18,2.3-4.34c0.41-0.47,0.85-0.87,1.32-1.24
		l9.2-44.78l-5.77-4.19v24.56h-4.03v-23.41h-3.11v-3.9h3.36l-31.33-22.77l-44.27,25.17c0.34,0.31,0.66,0.64,0.96,1
		c1.01,1.22,1.8,2.68,2.37,4.38c0.57,1.7,0.85,3.63,0.85,5.79c0,2.19-0.29,4.14-0.85,5.85c-0.57,1.72-1.36,3.18-2.37,4.38
		c-1.01,1.21-2.21,2.11-3.61,2.72c-1.4,0.61-2.94,0.91-4.63,0.91s-3.24-0.31-4.65-0.93c-1.41-0.62-2.62-1.54-3.63-2.76
		c-1.01-1.22-1.79-2.68-2.35-4.4c-0.55-1.71-0.83-3.64-0.83-5.77c0-2.33,0.26-4.35,0.79-6.08c0.52-1.73,1.29-3.18,2.3-4.34
		c0.01-0.01,0.02-0.02,0.02-0.02c-7.4-2.7-14.98-5.01-22.74-6.88l-13.7-30.23c-0.13,1.29-0.37,2.49-0.73,3.59
		c-0.57,1.72-1.36,3.18-2.37,4.38c-1.01,1.2-2.21,2.11-3.61,2.72c-1.4,0.61-2.94,0.91-4.63,0.91c-1.69,0-3.24-0.31-4.65-0.93
		c-1.41-0.62-2.62-1.54-3.63-2.76c-1.01-1.22-1.79-2.68-2.34-4.4c-0.55-1.72-0.83-3.64-0.83-5.77c0-2.33,0.26-4.35,0.79-6.08
		c0.52-1.73,1.29-3.18,2.3-4.34c1.01-1.16,2.22-2.03,3.63-2.59c1.41-0.57,2.99-0.85,4.73-0.85c1.6,0,3.07,0.29,4.41,0.85l-3.76-8.29
		h-50.54l-3.51,7.75c0.66,0.15,1.3,0.35,1.91,0.62c1.4,0.62,2.6,1.54,3.61,2.76c1.01,1.22,1.8,2.68,2.37,4.38
		c0.57,1.7,0.85,3.63,0.85,5.79c0,2.19-0.28,4.14-0.85,5.85c-0.57,1.72-1.36,3.18-2.37,4.38c-1.01,1.2-2.21,2.11-3.61,2.72
		c-1.4,0.61-2.94,0.91-4.63,0.91c-1.69,0-3.24-0.31-4.65-0.93c-1.34-0.59-2.49-1.46-3.47-2.58l-10.04,22.14
		c-4.54,1.09-9.01,2.37-13.43,3.75h6.02v27.31h-4.03v-23.41h-3.11v-3.56c-5.02,1.6-9.96,3.39-14.82,5.35v21.62h-4.03v-22.09
		l-2.32-1.32h-0.79v-0.45l-46.12-26.21l-31.21,22.67c0.85,0.15,1.67,0.39,2.43,0.73c1.4,0.62,2.6,1.54,3.61,2.76
		c1.01,1.22,1.8,2.68,2.37,4.38c0.57,1.7,0.85,3.63,0.85,5.79c0,2.19-0.28,4.14-0.85,5.85c-0.57,1.72-1.36,3.18-2.37,4.38
		c-1.01,1.21-2.21,2.11-3.61,2.72c-1.4,0.61-2.94,0.91-4.63,0.91c-1.19,0-2.31-0.16-3.36-0.47l4.82,23.44v-0.59h7.14v27.31h-4.03
		v-23.41h-2.43l2.31,11.22c-7.08,8.29-13.53,17.14-19.27,26.46l-58.78,6.58l-0.64,1.97c0.28,0.1,0.55,0.19,0.82,0.31
		c1.4,0.62,2.6,1.54,3.61,2.76c1.01,1.22,1.8,2.68,2.37,4.38c0.57,1.7,0.85,3.63,0.85,5.79c0,2.19-0.29,4.14-0.85,5.85
		c-0.57,1.72-1.36,3.18-2.37,4.38c-1.01,1.21-2.21,2.11-3.61,2.72c-1.4,0.61-2.94,0.91-4.63,0.91c-1.69,0-3.24-0.31-4.65-0.93
		c-0.01-0.01-0.02-0.01-0.04-0.02l-6.48,19.94l3.72,3.39h3.84v3.5l14.31,13.06c-0.13-0.95-0.2-1.95-0.2-2.99
		c0-2.33,0.26-4.35,0.79-6.08c0.52-1.73,1.29-3.18,2.3-4.34c1.01-1.16,2.22-2.03,3.63-2.59c1.41-0.57,2.99-0.85,4.73-0.85
		c1.69,0,3.23,0.31,4.63,0.93c1.4,0.62,2.6,1.54,3.61,2.76c1.01,1.22,1.8,2.68,2.37,4.38c0.57,1.7,0.85,3.63,0.85,5.79
		c0,2.18-0.28,4.14-0.85,5.85c-0.57,1.72-1.36,3.18-2.37,4.38c-1.01,1.21-2.21,2.11-3.61,2.72c-1.22,0.53-2.56,0.82-4.01,0.88
		l9.88,9.02c-0.42,5.43-0.63,10.91-0.63,16.45c0,1.05,0.05,2.1,0.06,3.15c0.24,0.51,0.49,1.01,0.67,1.57
		c0.57,1.7,0.85,3.63,0.85,5.79c0,2.19-0.28,4.14-0.85,5.85c-0.57,1.72-1.36,3.18-2.37,4.38c-1.01,1.2-2.21,2.11-3.61,2.72
		c-0.82,0.36-1.7,0.6-2.63,0.75l-24.4,22.27c0.15,0,0.29-0.02,0.44-0.02c1.69,0,3.23,0.31,4.63,0.93c1.4,0.62,2.6,1.54,3.61,2.76
		c1.01,1.22,1.8,2.68,2.37,4.38c0.57,1.7,0.85,3.63,0.85,5.79c0,2.19-0.29,4.14-0.85,5.85c-0.57,1.72-1.36,3.18-2.37,4.38
		c-1.01,1.21-2.21,2.11-3.61,2.72c-1.4,0.61-2.94,0.91-4.63,0.91c-1.69,0-3.24-0.31-4.65-0.93c-0.42-0.19-0.82-0.41-1.21-0.65
		l7.74,23.82c0.97,0.15,1.89,0.4,2.75,0.78c1.4,0.62,2.6,1.54,3.61,2.76c1.01,1.22,1.8,2.68,2.37,4.38c0.08,0.23,0.13,0.47,0.2,0.7
		l15.72,1.76v-6.34h-3.11v-3.9h7.14v10.69l14.15,1.58c0.08-1.79,0.33-3.39,0.75-4.79c0.52-1.73,1.29-3.18,2.3-4.34
		c1.01-1.16,2.22-2.03,3.63-2.59c1.41-0.57,2.99-0.85,4.73-0.85c1.69,0,3.23,0.31,4.63,0.93c1.4,0.62,2.6,1.54,3.61,2.76
		c1.01,1.22,1.8,2.68,2.37,4.38c0.57,1.7,0.85,3.63,0.85,5.79c0,2.18-0.28,4.14-0.85,5.85c-0.02,0.07-0.06,0.13-0.09,0.21
		c4.86,7.39,10.15,14.47,15.88,21.18l-1.85,8.98c0.71,0.15,1.39,0.37,2.03,0.66c1.4,0.62,2.6,1.54,3.61,2.76
		c1.01,1.22,1.8,2.68,2.37,4.38c0.57,1.7,0.85,3.63,0.85,5.79c0,2.19-0.28,4.14-0.85,5.85c-0.57,1.72-1.36,3.18-2.37,4.38
		c-1.01,1.21-2.21,2.11-3.61,2.72c-1.4,0.61-2.94,0.91-4.63,0.91c-1.05,0-2.03-0.13-2.97-0.37l-4.51,21.94l2.22,1.62
		c0.17-0.08,0.34-0.17,0.52-0.25c1.41-0.57,2.99-0.85,4.73-0.85c1.69,0,3.23,0.31,4.63,0.93c1.4,0.62,2.6,1.54,3.61,2.76
		c1.01,1.22,1.8,2.68,2.37,4.38c0.51,1.53,0.78,3.25,0.83,5.15l15.09,10.96v-19.99h-3.11v-3.9h7.14v26.82l2.86,2.07l12.99-7.39
		c-0.35-0.68-0.66-1.39-0.91-2.17c-0.55-1.71-0.83-3.64-0.83-5.77c0-2.33,0.26-4.35,0.79-6.08c0.52-1.73,1.29-3.18,2.3-4.34
		c1.01-1.16,2.22-2.03,3.63-2.59c1.41-0.57,2.99-0.85,4.73-0.85c1.69,0,3.23,0.31,4.63,0.93c1.4,0.62,2.6,1.54,3.61,2.76
		c1.01,1.22,1.8,2.68,2.37,4.38c0.2,0.6,0.35,1.24,0.48,1.9l12.32-7v-2.68h4.71l0.53-0.3c0.26,0.11,0.52,0.2,0.77,0.3h1.12v0.44
		c5.85,2.36,11.83,4.46,17.93,6.29v-2.83h-3.11v-3.9h7.14v7.93c2.46,0.69,4.92,1.34,7.41,1.94l24.38,53.79h4.28
		c0-0.1-0.01-0.19-0.01-0.29c0-2.33,0.26-4.35,0.79-6.08c0.52-1.73,1.29-3.18,2.3-4.34c1.01-1.16,2.22-2.03,3.63-2.59
		c1.41-0.57,2.99-0.85,4.73-0.85c1.69,0,3.23,0.31,4.63,0.93c1.4,0.62,2.6,1.54,3.61,2.76c1.01,1.22,1.8,2.68,2.37,4.38
		c0.57,1.7,0.85,3.63,0.85,5.79c0,0.1-0.01,0.19-0.01,0.29h15.08v-9.96h-3.11v-3.9h7.14v13.86h4.26l16.82-37.1
		c-0.05-0.02-0.11-0.04-0.16-0.06c-1.41-0.62-2.62-1.54-3.63-2.76c-1.01-1.22-1.79-2.68-2.34-4.4c-0.55-1.71-0.83-3.64-0.83-5.77
		c0-2.33,0.26-4.35,0.79-6.08c0.52-1.73,1.29-3.18,2.3-4.34c1.01-1.16,2.22-2.03,3.63-2.59c1.41-0.57,2.99-0.85,4.73-0.85
		c1.69,0,3.23,0.31,4.63,0.93c1.4,0.62,2.6,1.54,3.61,2.76c1.01,1.22,1.8,2.68,2.37,4.38c0.01,0.04,0.02,0.08,0.03,0.12
		c5.21-1.46,10.34-3.12,15.38-4.97c0.97-1.05,2.1-1.84,3.41-2.37c1.41-0.57,2.99-0.85,4.73-0.85c0.05,0,0.09,0.01,0.14,0.01
		c0.01-0.01,0.03-0.01,0.04-0.02l0.04,0.02c1.6,0.03,3.07,0.33,4.41,0.92c1.4,0.62,2.6,1.54,3.61,2.76
		c0.35,0.43,0.65,0.92,0.95,1.41l17.34,9.85v-10.77h-3.11v-3.9h7.14v16.96l21,11.94l2.3-1.67c-0.83-0.16-1.63-0.39-2.38-0.72
		c-1.41-0.62-2.62-1.54-3.63-2.76c-1.01-1.22-1.79-2.68-2.35-4.4c-0.55-1.71-0.83-3.64-0.83-5.77c0-2.33,0.26-4.35,0.79-6.08
		c0.52-1.73,1.29-3.18,2.3-4.34c1.01-1.16,2.22-2.03,3.63-2.59c1.41-0.57,2.99-0.85,4.73-0.85c1.69,0,3.23,0.31,4.63,0.93
		c1.4,0.62,2.6,1.54,3.61,2.76c1.01,1.22,1.8,2.68,2.37,4.38c0.57,1.7,0.85,3.63,0.85,5.79c0,1.42-0.13,2.73-0.37,3.95l15.44-11.22
		v-2.41h-3.11v-3.9h7.14v3.38l5.77-4.19l-11.92-57.99c3.69-4.32,7.2-8.8,10.53-13.41c-0.26,0.01-0.51,0.04-0.77,0.04
		c-1.69,0-3.24-0.31-4.65-0.93c-1.41-0.62-2.62-1.54-3.63-2.76c-1.01-1.22-1.79-2.68-2.35-4.4c-0.55-1.72-0.83-3.64-0.83-5.77
		c0-2.33,0.26-4.35,0.79-6.08c0.52-1.73,1.29-3.18,2.3-4.34c1.01-1.16,2.22-2.03,3.63-2.59c1.41-0.57,2.99-0.85,4.73-0.85
		c1.69,0,3.23,0.31,4.63,0.93c1.4,0.62,2.6,1.54,3.61,2.76c1.01,1.22,1.8,2.68,2.37,4.38c0.57,1.7,0.85,3.63,0.85,5.79
		c0,0.19-0.01,0.37-0.02,0.56l15.09-1.69v-8.55h-3.11v-3.9h7.14v12l17.93-2.01v-6.09h-3.11v-3.9h7.14v9.54l15.79-1.77l1.26-3.87
		h-2.24v-3.9h3.5l11.81-36.36V979l-42.35-38.65c0.42-5.43,0.63-10.91,0.63-16.45c0-5.53-0.22-11.02-0.63-16.45l20.39-18.61v-13.92
		h-3.11v-3.9h7.14v14.14L1254.92,867.65z M786.79,848.54h-4.03v-23.41h-3.11v-3.9h7.14V848.54z M786.79,997.96h-4.03v-23.41h-3.11
		v-3.9h7.14V997.96z M835.77,821.23h7.14v27.31h-4.03v-23.41h-3.11V821.23z M801.69,828.72c0.52-1.73,1.29-3.18,2.3-4.34
		c1.01-1.16,2.22-2.03,3.63-2.59c1.41-0.57,2.99-0.85,4.73-0.85c1.69,0,3.23,0.31,4.63,0.93c1.4,0.62,2.6,1.54,3.61,2.76
		c1.01,1.22,1.8,2.68,2.37,4.38c0.57,1.7,0.85,3.63,0.85,5.79c0,2.19-0.28,4.14-0.85,5.85c-0.57,1.72-1.36,3.18-2.37,4.38
		c-1.01,1.21-2.21,2.11-3.61,2.72c-1.4,0.61-2.94,0.91-4.63,0.91c-1.69,0-3.24-0.31-4.65-0.93c-1.41-0.62-2.62-1.54-3.63-2.76
		c-1.01-1.22-1.79-2.68-2.35-4.4c-0.55-1.72-0.83-3.64-0.83-5.77C800.9,832.47,801.17,830.45,801.69,828.72z M801.61,924.74v-3.9
		h7.14v27.31h-4.03v-23.41H801.61z M804.72,898.35v-23.41h-3.11v-3.9h7.14v27.31H804.72z M822.96,990.07
		c-0.57,1.72-1.36,3.18-2.37,4.38c-1.01,1.21-2.21,2.11-3.61,2.72c-1.4,0.61-2.94,0.91-4.63,0.91c-1.69,0-3.24-0.31-4.65-0.93
		c-1.41-0.62-2.62-1.54-3.63-2.76c-1.01-1.22-1.79-2.68-2.35-4.4c-0.55-1.71-0.83-3.64-0.83-5.77c0-2.33,0.26-4.35,0.79-6.08
		c0.52-1.73,1.29-3.18,2.3-4.34c1.01-1.16,2.22-2.03,3.63-2.59c1.41-0.57,2.99-0.85,4.73-0.85c1.69,0,3.23,0.31,4.63,0.93
		c1.4,0.62,2.6,1.54,3.61,2.76c1.01,1.22,1.8,2.68,2.37,4.38c0.57,1.7,0.85,3.63,0.85,5.79
		C823.81,986.41,823.53,988.36,822.96,990.07z M842.91,1047.77h-4.03v-23.41h-3.11v-3.9h7.14V1047.77z M842.91,997.96h-4.03v-23.41
		h-3.11v-3.9h7.14V997.96z M844.92,940.27c-0.57,1.72-1.36,3.18-2.37,4.38c-1.01,1.2-2.21,2.11-3.61,2.72
		c-1.4,0.61-2.94,0.91-4.63,0.91c-1.69,0-3.24-0.31-4.65-0.93c-1.41-0.62-2.62-1.54-3.63-2.76c-1.01-1.22-1.79-2.68-2.35-4.4
		c-0.55-1.72-0.83-3.64-0.83-5.77c0-2.33,0.26-4.35,0.79-6.08c0.52-1.73,1.29-3.18,2.3-4.34c1.01-1.16,2.22-2.03,3.63-2.59
		c1.41-0.57,2.99-0.85,4.73-0.85c1.69,0,3.23,0.31,4.63,0.93c1.4,0.62,2.6,1.54,3.61,2.76c1.01,1.22,1.8,2.68,2.37,4.38
		c0.57,1.7,0.85,3.63,0.85,5.79C845.77,936.6,845.48,938.55,844.92,940.27z M844.92,890.46c-0.57,1.72-1.36,3.18-2.37,4.38
		c-1.01,1.21-2.21,2.11-3.61,2.72c-1.4,0.61-2.94,0.91-4.63,0.91c-1.69,0-3.24-0.31-4.65-0.93c-1.41-0.62-2.62-1.54-3.63-2.76
		c-1.01-1.22-1.79-2.68-2.35-4.4c-0.55-1.72-0.83-3.64-0.83-5.77c0-2.33,0.26-4.35,0.79-6.08c0.52-1.73,1.29-3.18,2.3-4.34
		c1.01-1.16,2.22-2.03,3.63-2.59c1.41-0.57,2.99-0.85,4.73-0.85c1.69,0,3.23,0.31,4.63,0.93c1.4,0.62,2.6,1.54,3.61,2.76
		c1.01,1.22,1.8,2.68,2.37,4.38c0.57,1.7,0.85,3.63,0.85,5.79C845.77,886.79,845.48,888.74,844.92,890.46z M1216.46,978.14
		c0.52-1.73,1.29-3.18,2.3-4.34c1.01-1.16,2.22-2.03,3.63-2.59c1.41-0.57,2.99-0.85,4.73-0.85c1.69,0,3.23,0.31,4.63,0.93
		c1.4,0.62,2.6,1.54,3.61,2.76c1.01,1.22,1.8,2.68,2.37,4.38c0.57,1.7,0.85,3.63,0.85,5.79c0,2.19-0.29,4.14-0.85,5.85
		c-0.57,1.72-1.36,3.18-2.37,4.38c-1.01,1.21-2.21,2.11-3.61,2.72c-1.4,0.61-2.94,0.91-4.63,0.91c-1.69,0-3.24-0.31-4.65-0.93
		c-1.41-0.62-2.62-1.54-3.63-2.76c-1.01-1.22-1.79-2.68-2.35-4.4c-0.55-1.71-0.83-3.64-0.83-5.77
		C1215.67,981.9,1215.93,979.87,1216.46,978.14z M1194.41,821.23h7.14v27.31h-4.03v-23.41h-3.11V821.23z M1126.18,729.1
		c0.52-1.73,1.29-3.18,2.3-4.34c1.01-1.16,2.22-2.03,3.63-2.59c1.41-0.57,2.99-0.85,4.73-0.85c1.69,0,3.23,0.31,4.63,0.93
		c1.4,0.62,2.6,1.54,3.61,2.76c1.01,1.22,1.8,2.68,2.37,4.38c0.57,1.7,0.85,3.63,0.85,5.79c0,2.19-0.28,4.14-0.85,5.85
		c-0.57,1.72-1.36,3.18-2.37,4.38c-1.01,1.21-2.21,2.11-3.61,2.72c-1.4,0.61-2.94,0.91-4.63,0.91c-1.69,0-3.24-0.31-4.65-0.93
		c-1.41-0.62-2.62-1.54-3.63-2.76c-1.01-1.22-1.79-2.68-2.35-4.4c-0.55-1.71-0.83-3.64-0.83-5.77
		C1125.39,732.86,1125.66,730.83,1126.18,729.1z M1126.18,778.91c0.52-1.73,1.29-3.18,2.3-4.34c1.01-1.16,2.22-2.03,3.63-2.59
		c1.41-0.57,2.99-0.85,4.73-0.85c1.69,0,3.23,0.31,4.63,0.93c1.4,0.62,2.6,1.54,3.61,2.76c1.01,1.22,1.8,2.68,2.37,4.38
		c0.57,1.7,0.85,3.63,0.85,5.79c0,2.18-0.28,4.14-0.85,5.85c-0.57,1.72-1.36,3.18-2.37,4.38c-1.01,1.2-2.21,2.11-3.61,2.72
		c-1.4,0.61-2.94,0.91-4.63,0.91c-1.69,0-3.24-0.31-4.65-0.93c-1.41-0.62-2.62-1.54-3.63-2.76c-1.01-1.22-1.79-2.68-2.35-4.4
		c-0.55-1.72-0.83-3.64-0.83-5.77C1125.39,782.67,1125.66,780.64,1126.18,778.91z M1138.3,825.13v-3.9h7.14v27.31h-4.03v-23.41
		H1138.3z M1104.14,721.61h7.14v27.31h-4.03v-23.41h-3.11V721.61z M1104.14,771.42h7.14v27.31h-4.03v-23.41h-3.11V771.42z
		 M1035.91,729.1c0.52-1.73,1.29-3.18,2.3-4.34c1.01-1.16,2.22-2.03,3.63-2.59c1.41-0.57,2.99-0.85,4.73-0.85
		c1.69,0,3.23,0.31,4.63,0.93c1.4,0.62,2.6,1.54,3.61,2.76c1.01,1.22,1.8,2.68,2.37,4.38c0.57,1.7,0.85,3.63,0.85,5.79
		c0,2.19-0.28,4.14-0.85,5.85c-0.57,1.72-1.36,3.18-2.37,4.38c-1.01,1.21-2.21,2.11-3.61,2.72c-1.4,0.61-2.94,0.91-4.63,0.91
		c-1.69,0-3.24-0.31-4.65-0.93c-1.41-0.62-2.62-1.54-3.63-2.76c-1.01-1.22-1.79-2.68-2.34-4.4c-0.55-1.71-0.83-3.64-0.83-5.77
		C1035.12,732.86,1035.38,730.83,1035.91,729.1z M1013.87,721.61h7.14v27.31h-4.03v-23.41h-3.11V721.61z M991.91,671.8h7.14v27.31
		h-4.03V675.7h-3.11V671.8z M991.91,721.61h7.14v27.31h-4.03v-23.41h-3.11V721.61z M957.83,729.1c0.52-1.73,1.29-3.18,2.3-4.34
		c1.01-1.16,2.22-2.03,3.63-2.59c1.41-0.57,2.99-0.85,4.73-0.85c1.69,0,3.23,0.31,4.63,0.93c1.4,0.62,2.6,1.54,3.61,2.76
		c1.01,1.22,1.8,2.68,2.37,4.38c0.57,1.7,0.85,3.63,0.85,5.79c0,2.19-0.28,4.14-0.85,5.85c-0.57,1.72-1.36,3.18-2.37,4.38
		c-1.01,1.21-2.21,2.11-3.61,2.72c-1.4,0.61-2.94,0.91-4.63,0.91c-1.69,0-3.24-0.31-4.65-0.93c-1.41-0.62-2.62-1.54-3.63-2.76
		c-1.01-1.22-1.79-2.68-2.35-4.4c-0.55-1.71-0.83-3.64-0.83-5.77C957.05,732.86,957.31,730.83,957.83,729.1z M879.76,729.1
		c0.52-1.73,1.29-3.18,2.3-4.34c1.01-1.16,2.22-2.03,3.63-2.59c1.41-0.57,2.99-0.85,4.73-0.85c1.69,0,3.23,0.31,4.63,0.93
		c1.4,0.62,2.6,1.54,3.61,2.76c1.01,1.22,1.8,2.68,2.37,4.38c0.57,1.7,0.85,3.63,0.85,5.79c0,2.19-0.29,4.14-0.85,5.85
		c-0.57,1.72-1.36,3.18-2.37,4.38c-1.01,1.21-2.21,2.11-3.61,2.72c-1.4,0.61-2.94,0.91-4.63,0.91c-1.69,0-3.24-0.31-4.65-0.93
		c-1.41-0.62-2.62-1.54-3.63-2.76c-1.01-1.22-1.79-2.68-2.35-4.4c-0.55-1.71-0.83-3.64-0.83-5.77
		C878.97,732.86,879.24,730.83,879.76,729.1z M879.76,778.91c0.52-1.73,1.29-3.18,2.3-4.34c1.01-1.16,2.22-2.03,3.63-2.59
		c1.41-0.57,2.99-0.85,4.73-0.85c1.69,0,3.23,0.31,4.63,0.93c1.4,0.62,2.6,1.54,3.61,2.76c1.01,1.22,1.8,2.68,2.37,4.38
		c0.57,1.7,0.85,3.63,0.85,5.79c0,2.18-0.29,4.14-0.85,5.85c-0.57,1.72-1.36,3.18-2.37,4.38c-1.01,1.2-2.21,2.11-3.61,2.72
		c-1.4,0.61-2.94,0.91-4.63,0.91c-1.69,0-3.24-0.31-4.65-0.93c-1.41-0.62-2.62-1.54-3.63-2.76c-1.01-1.22-1.79-2.68-2.35-4.4
		c-0.55-1.72-0.83-3.64-0.83-5.77C878.97,782.67,879.24,780.64,879.76,778.91z M857.72,721.61h7.14v27.31h-4.03v-23.41h-3.11V721.61
		z M857.72,771.42h7.14v27.31h-4.03v-23.41h-3.11V771.42z M864.86,1097.58h-4.03v-23.41h-3.11v-3.9h7.14V1097.58z M876.71,1044.26
		c-1.01,1.2-2.21,2.11-3.61,2.72c-1.4,0.61-2.94,0.91-4.63,0.91c-1.69,0-3.24-0.31-4.65-0.93c-1.41-0.62-2.62-1.54-3.63-2.76
		c-1.01-1.22-1.79-2.68-2.35-4.4c-0.55-1.72-0.83-3.64-0.83-5.77c0-2.33,0.26-4.35,0.79-6.08c0.52-1.73,1.29-3.18,2.3-4.34
		c1.01-1.16,2.22-2.03,3.63-2.59c1.41-0.57,2.99-0.85,4.73-0.85c1.69,0,3.23,0.31,4.63,0.93c1.4,0.62,2.6,1.54,3.61,2.76
		c1.01,1.22,1.8,2.68,2.37,4.38c0.57,1.7,0.85,3.63,0.85,5.79c0,2.18-0.28,4.14-0.85,5.85
		C878.51,1041.6,877.72,1043.06,876.71,1044.26z M886.82,1097.58h-4.03v-23.41h-3.11v-3.9h7.14V1097.58z M922.99,1089.69
		c-0.57,1.72-1.36,3.18-2.37,4.38c-1.01,1.21-2.21,2.11-3.61,2.72c-1.4,0.61-2.94,0.91-4.63,0.91c-1.69,0-3.24-0.31-4.65-0.93
		c-1.41-0.62-2.62-1.54-3.63-2.76c-1.01-1.22-1.79-2.68-2.35-4.4c-0.55-1.72-0.83-3.64-0.83-5.77c0-2.33,0.26-4.35,0.79-6.08
		c0.52-1.73,1.29-3.18,2.3-4.34c1.01-1.16,2.22-2.03,3.63-2.59c1.41-0.57,2.99-0.85,4.73-0.85c1.69,0,3.23,0.31,4.63,0.93
		c1.4,0.62,2.6,1.54,3.61,2.76c1.01,1.22,1.8,2.68,2.37,4.38c0.57,1.7,0.85,3.63,0.85,5.79
		C923.84,1086.02,923.56,1087.97,922.99,1089.69z M942.93,1097.58h-4.03v-23.41h-3.11v-3.9h7.14V1097.58z M979.11,1139.5
		c-0.57,1.72-1.36,3.18-2.37,4.38c-1.01,1.21-2.21,2.11-3.61,2.72c-1.4,0.61-2.94,0.91-4.63,0.91c-1.69,0-3.24-0.31-4.65-0.93
		c-1.41-0.62-2.62-1.54-3.63-2.76c-1.01-1.22-1.79-2.68-2.35-4.4c-0.55-1.71-0.83-3.64-0.83-5.77c0-2.33,0.26-4.35,0.79-6.08
		c0.52-1.73,1.29-3.18,2.3-4.34c1.01-1.16,2.22-2.03,3.63-2.59c1.41-0.57,2.99-0.85,4.73-0.85c1.69,0,3.23,0.31,4.63,0.93
		c1.4,0.62,2.6,1.54,3.61,2.76c1.01,1.22,1.8,2.68,2.37,4.38c0.57,1.7,0.85,3.63,0.85,5.79
		C979.96,1135.83,979.67,1137.78,979.11,1139.5z M988.94,1044.26c-1.01,1.2-2.21,2.11-3.61,2.72c-1.4,0.61-2.94,0.91-4.63,0.91
		c-1.69,0-3.24-0.31-4.65-0.93c-1.41-0.62-2.62-1.54-3.63-2.76c-1.01-1.22-1.79-2.68-2.34-4.4c-0.55-1.72-0.83-3.64-0.83-5.77
		c0-2.33,0.26-4.35,0.79-6.08c0.52-1.73,1.29-3.18,2.3-4.34c1.01-1.16,2.22-2.03,3.63-2.59c1.41-0.57,2.99-0.85,4.73-0.85
		c1.69,0,3.23,0.31,4.63,0.93c1.4,0.62,2.6,1.54,3.61,2.76c1.01,1.22,1.8,2.68,2.37,4.38c0.57,1.7,0.85,3.63,0.85,5.79
		c0,2.18-0.28,4.14-0.85,5.85C990.74,1041.6,989.95,1043.06,988.94,1044.26z M957.75,974.55v-3.9h7.14v27.31h-4.03v-23.41H957.75z
		 M963.85,947.34c-1.41-0.62-2.62-1.54-3.63-2.76c-1.01-1.22-1.79-2.68-2.35-4.4c-0.55-1.72-0.83-3.64-0.83-5.77
		c0-2.33,0.26-4.35,0.79-6.08c0.52-1.73,1.29-3.18,2.3-4.34c1.01-1.16,2.22-2.03,3.63-2.59c1.41-0.57,2.99-0.85,4.73-0.85
		c1.69,0,3.23,0.31,4.63,0.93c1.4,0.62,2.6,1.54,3.61,2.76c1.01,1.22,1.8,2.68,2.37,4.38c0.57,1.7,0.85,3.63,0.85,5.79
		c0,2.19-0.28,4.14-0.85,5.85c-0.57,1.72-1.36,3.18-2.37,4.38c-1.01,1.2-2.21,2.11-3.61,2.72c-1.4,0.61-2.94,0.91-4.63,0.91
		C966.81,948.28,965.26,947.97,963.85,947.34z M999.05,1147.38h-4.03v-23.41h-3.11v-3.9h7.14V1147.38z M999.05,1094.65v2.92h-4.03
		v-2.92v-20.49h-3.11v-3.9h7.14V1094.65z M1001.06,990.07c-0.57,1.72-1.36,3.18-2.37,4.38c-1.01,1.21-2.21,2.11-3.61,2.72
		c-1.4,0.61-2.94,0.91-4.63,0.91c-1.69,0-3.24-0.31-4.65-0.93c-1.41-0.62-2.62-1.54-3.63-2.76c-1.01-1.22-1.79-2.68-2.34-4.4
		c-0.55-1.71-0.83-3.64-0.83-5.77c0-2.33,0.26-4.35,0.79-6.08c0.52-1.73,1.29-3.18,2.3-4.34c1.01-1.16,2.22-2.03,3.63-2.59
		c1.41-0.57,2.99-0.85,4.73-0.85c1.69,0,3.23,0.31,4.63,0.93c1.4,0.62,2.6,1.54,3.61,2.76c1.01,1.22,1.8,2.68,2.37,4.38
		c0.57,1.7,0.85,3.63,0.85,5.79C1001.91,986.41,1001.63,988.36,1001.06,990.07z M1006.58,1044.2c-1.01-1.22-1.79-2.68-2.34-4.4
		c-0.55-1.72-0.83-3.64-0.83-5.77c0-2.33,0.26-4.35,0.79-6.08c0.52-1.73,1.29-3.18,2.3-4.34c1.01-1.16,2.22-2.03,3.63-2.59
		c1.41-0.57,2.99-0.85,4.73-0.85c1.69,0,3.23,0.31,4.63,0.93c1.4,0.62,2.6,1.54,3.61,2.76c1.01,1.22,1.8,2.68,2.37,4.38
		c0.57,1.7,0.85,3.63,0.85,5.79c0,2.18-0.29,4.14-0.85,5.85c-0.57,1.72-1.36,3.18-2.37,4.38c-1.01,1.2-2.21,2.11-3.61,2.72
		c-1.4,0.61-2.94,0.91-4.63,0.91c-1.69,0-3.24-0.31-4.65-0.93C1008.8,1046.34,1007.59,1045.42,1006.58,1044.2z M1013.87,974.55v-3.9
		h7.14v27.31h-4.03v-23.41H1013.87z M1021.01,1147.38h-4.03v-23.41h-3.11v-3.9h7.14V1147.38z M1035.22,1089.69
		c-0.57,1.72-1.36,3.18-2.37,4.38c-0.17,0.21-0.36,0.39-0.55,0.58c-0.89,0.91-1.91,1.63-3.06,2.14c-1.4,0.61-2.94,0.91-4.63,0.91
		c-1.69,0-3.24-0.31-4.65-0.93c-1.15-0.51-2.15-1.22-3.03-2.11c-0.2-0.21-0.41-0.42-0.6-0.65c-1.01-1.22-1.79-2.68-2.34-4.4
		c-0.55-1.72-0.83-3.64-0.83-5.77c0-2.33,0.26-4.35,0.79-6.08c0.52-1.73,1.29-3.18,2.3-4.34c1.01-1.16,2.22-2.03,3.63-2.59
		c1.41-0.57,2.99-0.85,4.73-0.85c1.69,0,3.23,0.31,4.63,0.93c1.4,0.62,2.6,1.54,3.61,2.76c1.01,1.22,1.8,2.68,2.37,4.38
		c0.57,1.7,0.85,3.63,0.85,5.79C1036.07,1086.02,1035.79,1087.97,1035.22,1089.69z M1035.95,989.99c-0.55-1.71-0.83-3.64-0.83-5.77
		c0-2.33,0.26-4.35,0.79-6.08c0.52-1.73,1.29-3.18,2.3-4.34c1.01-1.16,2.22-2.03,3.63-2.59c1.41-0.57,2.99-0.85,4.73-0.85
		c1.69,0,3.23,0.31,4.63,0.93c1.4,0.62,2.6,1.54,3.61,2.76c1.01,1.22,1.8,2.68,2.37,4.38c0.57,1.7,0.85,3.63,0.85,5.79
		c0,2.19-0.28,4.14-0.85,5.85c-0.57,1.72-1.36,3.18-2.37,4.38c-1.01,1.21-2.21,2.11-3.61,2.72c-1.4,0.61-2.94,0.91-4.63,0.91
		c-1.69,0-3.24-0.31-4.65-0.93c-1.41-0.62-2.62-1.54-3.63-2.76C1037.28,993.17,1036.5,991.71,1035.95,989.99z M1069.38,890.46
		c-0.57,1.72-1.36,3.18-2.37,4.38c-1.01,1.21-2.21,2.11-3.61,2.72c-1.4,0.61-2.94,0.91-4.63,0.91c-1.69,0-3.24-0.31-4.65-0.93
		c-1.41-0.62-2.62-1.54-3.63-2.76c-1.01-1.22-1.79-2.68-2.35-4.4c-0.55-1.72-0.83-3.64-0.83-5.77c0-2.33,0.26-4.35,0.79-6.08
		c0.52-1.73,1.29-3.18,2.3-4.34c1.01-1.16,2.22-2.03,3.63-2.59c1.41-0.57,2.99-0.85,4.73-0.85c1.69,0,3.23,0.31,4.63,0.93
		c1.4,0.62,2.6,1.54,3.61,2.76c1.01,1.22,1.8,2.68,2.37,4.38c0.57,1.7,0.85,3.63,0.85,5.79
		C1070.23,886.79,1069.95,888.74,1069.38,890.46z M1072.37,924c1.01-1.16,2.22-2.03,3.63-2.59c1.41-0.57,2.99-0.85,4.73-0.85
		c1.69,0,3.23,0.31,4.63,0.93c1.4,0.62,2.6,1.54,3.61,2.76c1.01,1.22,1.8,2.68,2.37,4.38c0.57,1.7,0.85,3.63,0.85,5.79
		c0,2.19-0.29,4.14-0.85,5.85c-0.57,1.72-1.36,3.18-2.37,4.38c-1.01,1.2-2.21,2.11-3.61,2.72c-1.4,0.61-2.94,0.91-4.63,0.91
		s-3.24-0.31-4.65-0.93c-1.41-0.62-2.62-1.54-3.63-2.76c-1.01-1.22-1.79-2.68-2.35-4.4c-0.55-1.72-0.83-3.64-0.83-5.77
		c0-2.33,0.26-4.35,0.79-6.08C1070.59,926.6,1071.36,925.16,1072.37,924z M1051.2,921.49c1.4,0.62,2.6,1.54,3.61,2.76
		c1.01,1.22,1.8,2.68,2.37,4.38c0.57,1.7,0.85,3.63,0.85,5.79c0,2.19-0.28,4.14-0.85,5.85c-0.57,1.72-1.36,3.18-2.37,4.38
		c-1.01,1.2-2.21,2.11-3.61,2.72c-1.4,0.61-2.94,0.91-4.63,0.91c-1.69,0-3.24-0.31-4.65-0.93c-1.41-0.62-2.62-1.54-3.63-2.76
		c-1.01-1.22-1.79-2.68-2.34-4.4c-0.55-1.72-0.83-3.64-0.83-5.77c0-2.33,0.26-4.35,0.79-6.08c0.52-1.73,1.29-3.18,2.3-4.34
		c1.01-1.16,2.22-2.03,3.63-2.59c1.41-0.57,2.99-0.85,4.73-0.85C1048.26,920.55,1049.8,920.86,1051.2,921.49z M1069.38,1089.69
		c-0.57,1.72-1.36,3.18-2.37,4.38c-1.01,1.21-2.21,2.11-3.61,2.72c-1.4,0.61-2.94,0.91-4.63,0.91c-1.69,0-3.24-0.31-4.65-0.93
		c-1.41-0.62-2.62-1.54-3.63-2.76c-1.01-1.22-1.79-2.68-2.35-4.4c-0.55-1.72-0.83-3.64-0.83-5.77c0-2.33,0.26-4.35,0.79-6.08
		c0.52-1.73,1.29-3.18,2.3-4.34c1.01-1.16,2.22-2.03,3.63-2.59c1.41-0.57,2.99-0.85,4.73-0.85c1.69,0,3.23,0.31,4.63,0.93
		c1.4,0.62,2.6,1.54,3.61,2.76c1.01,1.22,1.8,2.68,2.37,4.38c0.57,1.7,0.85,3.63,0.85,5.79
		C1070.23,1086.02,1069.95,1087.97,1069.38,1089.69z M1103.54,1089.69c-0.57,1.72-1.36,3.18-2.37,4.38
		c-1.01,1.21-2.21,2.11-3.61,2.72c-1.4,0.61-2.94,0.91-4.63,0.91c-1.69,0-3.24-0.31-4.65-0.93c-1.41-0.62-2.62-1.54-3.63-2.76
		c-1.01-1.22-1.79-2.68-2.34-4.4c-0.55-1.72-0.83-3.64-0.83-5.77c0-2.33,0.26-4.35,0.79-6.08c0.52-1.73,1.29-3.18,2.3-4.34
		c1.01-1.16,2.22-2.03,3.63-2.59c1.41-0.57,2.99-0.85,4.73-0.85c1.69,0,3.23,0.31,4.63,0.93c1.4,0.62,2.6,1.54,3.61,2.76
		c1.01,1.22,1.8,2.68,2.37,4.38c0.57,1.7,0.85,3.63,0.85,5.79C1104.39,1086.02,1104.11,1087.97,1103.54,1089.69z M1123.48,1097.58
		h-4.03v-23.41h-3.11v-3.9h7.14V1097.58z M1159.65,1078.05c0.57,1.7,0.85,3.63,0.85,5.79c0,2.19-0.29,4.14-0.85,5.85
		c-0.57,1.72-1.36,3.18-2.37,4.38c-1.01,1.21-2.21,2.11-3.61,2.72c-1.4,0.61-2.94,0.91-4.63,0.91c-1.69,0-3.24-0.31-4.65-0.93
		c-1.41-0.62-2.62-1.54-3.63-2.76c-1.01-1.22-1.79-2.68-2.35-4.4c-0.55-1.72-0.83-3.64-0.83-5.77c0-2.33,0.26-4.35,0.79-6.08
		c0.52-1.73,1.29-3.18,2.3-4.34c1.01-1.16,2.22-2.03,3.63-2.59c1.41-0.57,2.99-0.85,4.73-0.85c1.69,0,3.23,0.31,4.63,0.93
		c1.4,0.62,2.6,1.54,3.61,2.76C1158.3,1074.89,1159.09,1076.34,1159.65,1078.05z M1138.3,1024.36v-3.9h7.14v27.31h-4.03v-23.41
		H1138.3z M1157.29,894.84c-1.01,1.21-2.21,2.11-3.61,2.72c-0.54,0.24-1.12,0.41-1.71,0.56c1.42,8.39,2.17,17,2.17,25.79
		c0,17.79-3.04,34.89-8.61,50.8c0.78,1.08,1.45,2.3,1.92,3.72c0.57,1.7,0.85,3.63,0.85,5.79c0,2.19-0.28,4.14-0.85,5.85
		c-0.57,1.72-1.36,3.18-2.37,4.38c-1.01,1.21-2.21,2.11-3.61,2.72c-1.4,0.61-2.94,0.91-4.63,0.91c-0.58,0-1.15-0.05-1.7-0.13
		c-4.51,8.2-9.74,15.94-15.62,23.15c1.39,0.62,2.59,1.54,3.59,2.75c1.01,1.22,1.8,2.68,2.37,4.38c0.57,1.7,0.85,3.63,0.85,5.79
		c0,2.18-0.29,4.14-0.85,5.85c-0.57,1.72-1.36,3.18-2.37,4.38c-1.01,1.2-2.21,2.11-3.61,2.72c-1.4,0.61-2.94,0.91-4.63,0.91
		c-1.69,0-3.24-0.31-4.65-0.93c-1.41-0.62-2.62-1.54-3.63-2.76c-1.01-1.22-1.79-2.68-2.35-4.4c-0.21-0.64-0.36-1.32-0.49-2.02
		c-18.05,16.46-40.02,28.7-64.32,35.14c-0.08-16.19-0.17-32.38-0.26-48.56h-0.92v-3.9h0.9c-0.02-4.33-0.05-8.66-0.07-12.99
		c-0.01-2.21,0.63-3.25,2.61-4.27c10.76-5.53,19.96-12.22,27.6-20.01c0.07-1.89,0.31-3.59,0.76-5.05c0.52-1.73,1.29-3.18,2.3-4.34
		c1.01-1.16,2.22-2.03,3.63-2.59c1.13-0.45,2.38-0.72,3.72-0.81c8.06-12.05,13.19-26.14,15.08-42.34c1.22-10.4,0.9-20.28-0.87-29.64
		c-0.33,0.02-0.66,0.05-0.99,0.05c-1.69,0-3.24-0.31-4.65-0.93c-1.41-0.62-2.62-1.54-3.63-2.76c-1.01-1.22-1.79-2.68-2.34-4.4
		c-0.55-1.72-0.83-3.64-0.83-5.77c0-2.33,0.26-4.35,0.79-6.08c0.52-1.73,1.29-3.18,2.3-4.34c0.19-0.22,0.4-0.42,0.61-0.62
		c-4.76-8.97-11.13-17.32-19.01-25.03h-2.83v-2.7c-0.2-0.18-0.38-0.37-0.58-0.55c-4.85-4.4-10.53-7.88-15.83-11.78
		c-0.23,0.18-0.46,0.35-0.69,0.53c-0.03,1-0.07,2-0.07,3c0,19.82-0.17,39.63,0.14,59.45c0.08,4.98-1.3,8.02-5.46,10.93
		c-6.69,4.68-13.28,9.51-19.83,14.39v26.35h-4.03V924.8c-4.33,3.23-8.65,6.46-12.98,9.67c-1.09,0.81-1.97,1.42-3.42,0.48
		c-0.5-0.32-1.02-0.62-1.52-0.94v14.14h-4.03v-16.62c-2.27-1.36-4.54-2.73-6.77-4.15c-11.48-7.31-22.9-14.7-34.39-21.98
		c-1.4-0.89-1.96-1.82-1.92-3.52c0.46-17.78,0.85-35.57,1.24-53.35h-2.08v-13.51c-3.75,2.58-7.23,4.88-10.45,7.45
		c-3.95,3.15-7.58,6.71-11.35,10.09c-2.88,3.66-5.76,7.32-8.64,10.97c-0.34,0.69-0.62,1.41-1.03,2.06c-1.22,1.9-2.37,3.82-3.44,5.77
		c0.28,0.1,0.55,0.19,0.82,0.31c1.4,0.62,2.6,1.54,3.61,2.76c1.01,1.22,1.8,2.68,2.37,4.38c0.57,1.7,0.85,3.63,0.85,5.79
		c0,2.18-0.28,4.14-0.85,5.85c-0.57,1.72-1.36,3.18-2.37,4.38c-1.01,1.21-2.21,2.11-3.61,2.72c-1.4,0.61-2.94,0.91-4.63,0.91
		c-1.69,0-3.24-0.31-4.65-0.93c-0.41-0.18-0.8-0.4-1.18-0.63c-1.02,4.74-1.67,9.59-1.94,14.57c-1.17,21.92,4.6,42.33,16.01,59.18
		h0.35v0.51c4.97,7.23,10.97,13.8,17.93,19.54v-16.14h-3.11v-3.9h7.14v23.17c5.51,4.08,11.53,7.68,18.04,10.7
		c1.34,0.62,1.88,1.32,1.88,2.87c-0.01,21.28,0.02,42.56,0.05,63.84c0.28-0.15,0.57-0.29,0.87-0.41c1.41-0.57,2.99-0.85,4.73-0.85
		c1.69,0,3.23,0.31,4.63,0.93c1.4,0.62,2.6,1.54,3.61,2.76c1.01,1.22,1.8,2.68,2.37,4.38c0.57,1.7,0.85,3.63,0.85,5.79
		c0,2.19-0.28,4.14-0.85,5.85c-0.57,1.72-1.36,3.18-2.37,4.38c-0.17,0.21-0.36,0.39-0.55,0.58c-0.89,0.91-1.91,1.63-3.06,2.14
		c-1.4,0.61-2.94,0.91-4.63,0.91c-1.69,0-3.24-0.31-4.65-0.93c-1.41-0.62-2.62-1.54-3.63-2.76c-1.01-1.22-1.79-2.68-2.35-4.4
		c-0.55-1.72-0.83-3.64-0.83-5.77c0-2.33,0.26-4.35,0.79-6.08c0.52-1.73,1.29-3.18,2.3-4.34c0.15-0.17,0.31-0.32,0.47-0.48
		c-19.56-5.17-37.61-14.1-53.32-25.97c-0.01,0-0.02,0.01-0.03,0.01c-1.4,0.61-2.94,0.91-4.63,0.91c-1.69,0-3.24-0.31-4.65-0.93
		c-1.41-0.62-2.62-1.54-3.63-2.76c-1.01-1.22-1.79-2.68-2.35-4.4c-0.55-1.72-0.83-3.64-0.83-5.77c0-0.36,0.02-0.69,0.03-1.04
		c-10.36-10.33-19.25-22.12-26.35-35.03h-4.02v-7.82c-9.6-20.08-14.98-42.54-14.98-66.24c0-27.44,7.22-53.22,19.84-75.57
		c-0.65-0.15-1.28-0.35-1.87-0.61c-1.41-0.62-2.62-1.54-3.63-2.76c-1.01-1.22-1.79-2.68-2.35-4.4c-0.55-1.72-0.83-3.64-0.83-5.77
		c0-2.33,0.26-4.35,0.79-6.08c0.52-1.73,1.29-3.18,2.3-4.34c1.01-1.16,2.22-2.03,3.63-2.59c1.41-0.57,2.99-0.85,4.73-0.85
		c1.69,0,3.23,0.31,4.63,0.93c1.4,0.62,2.6,1.54,3.61,2.76c0.93,1.12,1.65,2.47,2.2,4c10.65-13.51,23.51-25.2,38.04-34.53v-18.78
		h-3.11v-3.9h7.14v20.19c5.75-3.44,11.73-6.52,17.93-9.21v-7.08h-3.11v-3.9h7.14v9.3c5.21-2.08,10.56-3.89,16.04-5.4h-1.22v-3.9
		h7.14v2.38c11.28-2.64,23.03-4.04,35.11-4.04c13.19,0,25.99,1.67,38.22,4.8c1.01-1.16,2.21-2.02,3.62-2.59
		c1.41-0.57,2.99-0.85,4.73-0.85c1.69,0,3.23,0.31,4.63,0.93c1.4,0.62,2.6,1.54,3.61,2.76c1.01,1.22,1.8,2.68,2.37,4.38
		c0.19,0.56,0.33,1.15,0.45,1.75c3.98,1.61,7.88,3.38,11.69,5.31c-0.02-0.42-0.04-0.83-0.04-1.27c0-2.33,0.26-4.35,0.79-6.08
		c0.52-1.73,1.29-3.18,2.3-4.34c1.01-1.16,2.22-2.03,3.63-2.59c1.41-0.57,2.99-0.85,4.73-0.85c1.69,0,3.23,0.31,4.63,0.93
		c1.4,0.62,2.6,1.54,3.61,2.76c1.01,1.22,1.8,2.68,2.37,4.38c0.57,1.7,0.85,3.63,0.85,5.79c0,2.18-0.29,4.14-0.85,5.85
		c-0.57,1.72-1.36,3.18-2.37,4.38c-0.53,0.64-1.13,1.18-1.77,1.65c10.06,6.93,19.26,15.01,27.4,24.07c0.1,0,0.19-0.01,0.28-0.01
		c1.69,0,3.23,0.31,4.63,0.93c1.4,0.62,2.6,1.54,3.61,2.76c1.01,1.22,1.8,2.68,2.37,4.38c0.57,1.7,0.85,3.63,0.85,5.79
		c0,0.3-0.02,0.59-0.03,0.88c7.67,10.95,13.96,22.94,18.61,35.71c1.26-0.42,2.63-0.64,4.13-0.64c1.69,0,3.23,0.31,4.63,0.93
		c1.4,0.62,2.6,1.54,3.61,2.76c1.01,1.22,1.8,2.68,2.37,4.38c0.57,1.7,0.85,3.63,0.85,5.79c0,2.18-0.29,4.14-0.85,5.85
		C1159.09,892.18,1158.3,893.63,1157.29,894.84z M935.79,924.74v-3.9h7.14v27.31h-4.03v-23.41H935.79z M938.91,898.35v-23.41h-3.11
		v-3.9h7.14v27.31H938.91z M913.84,924.74v-3.9h7.14v27.31h-4.03v-23.41H913.84z M1181.61,990.07c-0.57,1.72-1.36,3.18-2.37,4.38
		c-1.01,1.21-2.21,2.11-3.61,2.72c-1.4,0.61-2.94,0.91-4.63,0.91c-1.69,0-3.24-0.31-4.65-0.93c-1.41-0.62-2.62-1.54-3.63-2.76
		c-1.01-1.22-1.79-2.68-2.35-4.4c-0.55-1.71-0.83-3.64-0.83-5.77c0-2.33,0.26-4.35,0.79-6.08c0.52-1.73,1.29-3.18,2.3-4.34
		c1.01-1.16,2.22-2.03,3.63-2.59c1.41-0.57,2.99-0.85,4.73-0.85c1.69,0,3.23,0.31,4.63,0.93c1.4,0.62,2.6,1.54,3.61,2.76
		c1.01,1.22,1.8,2.68,2.37,4.38c0.57,1.7,0.85,3.63,0.85,5.79C1182.46,986.41,1182.18,988.36,1181.61,990.07z M1181.61,940.27
		c-0.57,1.72-1.36,3.18-2.37,4.38c-1.01,1.2-2.21,2.11-3.61,2.72c-1.4,0.61-2.94,0.91-4.63,0.91c-1.69,0-3.24-0.31-4.65-0.93
		c-1.41-0.62-2.62-1.54-3.63-2.76c-1.01-1.22-1.79-2.68-2.35-4.4c-0.55-1.72-0.83-3.64-0.83-5.77c0-2.33,0.26-4.35,0.79-6.08
		c0.52-1.73,1.29-3.18,2.3-4.34c1.01-1.16,2.22-2.03,3.63-2.59c1.41-0.57,2.99-0.85,4.73-0.85c1.69,0,3.23,0.31,4.63,0.93
		c1.4,0.62,2.6,1.54,3.61,2.76c1.01,1.22,1.8,2.68,2.37,4.38c0.57,1.7,0.85,3.63,0.85,5.79
		C1182.46,936.6,1182.18,938.55,1181.61,940.27z M1172.46,874.94v-3.9h7.14v27.31h-4.03v-23.41H1172.46z M1181.61,840.65
		c-0.57,1.72-1.36,3.18-2.37,4.38c-1.01,1.21-2.21,2.11-3.61,2.72c-1.4,0.61-2.94,0.91-4.63,0.91c-1.69,0-3.24-0.31-4.65-0.93
		c-1.41-0.62-2.62-1.54-3.63-2.76c-1.01-1.22-1.79-2.68-2.35-4.4c-0.55-1.72-0.83-3.64-0.83-5.77c0-2.33,0.26-4.35,0.79-6.08
		c0.52-1.73,1.29-3.18,2.3-4.34c1.01-1.16,2.22-2.03,3.63-2.59c1.41-0.57,2.99-0.85,4.73-0.85c1.69,0,3.23,0.31,4.63,0.93
		c1.4,0.62,2.6,1.54,3.61,2.76c1.01,1.22,1.8,2.68,2.37,4.38c0.57,1.7,0.85,3.63,0.85,5.79
		C1182.46,836.98,1182.18,838.94,1181.61,840.65z M1201.56,997.96h-4.03v-23.41h-3.11v-3.9h7.14V997.96z M1201.56,948.15h-4.03
		v-23.41h-3.11v-3.9h7.14V948.15z M1215.77,890.46c-0.57,1.72-1.36,3.18-2.37,4.38c-1.01,1.21-2.21,2.11-3.61,2.72
		c-1.4,0.61-2.94,0.91-4.63,0.91c-1.69,0-3.24-0.31-4.65-0.93c-1.41-0.62-2.62-1.54-3.63-2.76c-1.01-1.22-1.79-2.68-2.35-4.4
		c-0.55-1.72-0.83-3.64-0.83-5.77c0-2.33,0.26-4.35,0.79-6.08c0.52-1.73,1.29-3.18,2.3-4.34c1.01-1.16,2.22-2.03,3.63-2.59
		c1.41-0.57,2.99-0.85,4.73-0.85c1.69,0,3.23,0.31,4.63,0.93c1.4,0.62,2.6,1.54,3.61,2.76c1.01,1.22,1.8,2.68,2.37,4.38
		c0.57,1.7,0.85,3.63,0.85,5.79C1216.62,886.79,1216.34,888.74,1215.77,890.46z M1223.51,848.54h-4.03v-23.41h-3.11v-3.9h7.14
		V848.54z"/>
	<path class="st1" d="M1174.99,826.06c-1.08-0.84-2.42-1.26-4.03-1.26c-1.58,0-2.91,0.42-3.98,1.26c-1.08,0.84-1.9,2.01-2.45,3.51
		c-0.55,1.49-0.83,3.24-0.83,5.23c0,1.94,0.28,3.67,0.83,5.19c0.55,1.52,1.37,2.7,2.45,3.55c1.08,0.84,2.41,1.27,3.98,1.27
		c1.6,0,2.95-0.42,4.03-1.27c1.08-0.84,1.89-2.03,2.45-3.57c0.55-1.54,0.84-3.3,0.87-5.29c-0.03-1.94-0.32-3.65-0.87-5.13
		C1176.89,828.07,1176.07,826.91,1174.99,826.06z"/>
	<path class="st1" d="M745.1,980.25c0.01-0.04,0.01-0.08,0.02-0.12l-0.05,0.04L745.1,980.25z"/>
	<path class="st1" d="M1153.03,875.87c-1.08-0.84-2.42-1.27-4.03-1.27c-1.03,0-1.95,0.2-2.77,0.56c2.07,6.2,3.76,12.58,5.03,19.11
		c0.65-0.21,1.24-0.52,1.76-0.93c1.08-0.84,1.89-2.03,2.45-3.57c0.55-1.54,0.84-3.3,0.87-5.29c-0.03-1.94-0.32-3.65-0.87-5.13
		C1154.93,877.88,1154.11,876.71,1153.03,875.87z"/>
	<path class="st1" d="M1174.99,925.68c-1.08-0.84-2.42-1.27-4.03-1.27c-1.58,0-2.91,0.42-3.98,1.27c-1.08,0.84-1.9,2.01-2.45,3.51
		c-0.55,1.49-0.83,3.24-0.83,5.23c0,1.94,0.28,3.67,0.83,5.19c0.55,1.52,1.37,2.7,2.45,3.55c1.08,0.84,2.41,1.27,3.98,1.27
		c1.6,0,2.95-0.42,4.03-1.27c1.08-0.84,1.89-2.03,2.45-3.57c0.55-1.54,0.84-3.3,0.87-5.29c-0.03-1.94-0.32-3.65-0.87-5.13
		C1176.89,927.68,1176.07,926.52,1174.99,925.68z"/>
	<path class="st1" d="M1174.99,975.48c-1.08-0.84-2.42-1.26-4.03-1.26c-1.58,0-2.91,0.42-3.98,1.26c-1.08,0.84-1.9,2.01-2.45,3.51
		c-0.55,1.49-0.83,3.24-0.83,5.23c0,1.94,0.28,3.67,0.83,5.19c0.55,1.52,1.37,2.7,2.45,3.55c1.08,0.84,2.41,1.27,3.98,1.27
		c1.6,0,2.95-0.42,4.03-1.27c1.08-0.84,1.89-2.03,2.45-3.57c0.55-1.54,0.84-3.3,0.87-5.29c-0.03-1.94-0.32-3.65-0.87-5.13
		C1176.89,977.49,1176.07,976.33,1174.99,975.48z"/>
	<path class="st1" d="M964.48,743.92c1.08,0.84,2.41,1.27,3.98,1.27c1.6,0,2.95-0.42,4.03-1.27c1.08-0.84,1.89-2.03,2.45-3.57
		c0.55-1.54,0.84-3.3,0.87-5.29c-0.03-1.94-0.32-3.65-0.87-5.13c-0.55-1.48-1.37-2.64-2.45-3.49c-1.08-0.84-2.42-1.26-4.03-1.26
		c-1.58,0-2.91,0.42-3.98,1.26c-1.08,0.84-1.9,2.01-2.45,3.51c-0.55,1.49-0.83,3.24-0.83,5.23c0,1.94,0.28,3.67,0.83,5.19
		C962.58,741.89,963.4,743.08,964.48,743.92z"/>
	<path class="st1" d="M1088.04,784.87c-0.03-1.94-0.32-3.64-0.87-5.13c-0.55-1.48-1.37-2.64-2.45-3.49
		c-1.08-0.84-2.42-1.27-4.03-1.27c-1.58,0-2.91,0.42-3.98,1.27c-1.08,0.84-1.9,2.01-2.45,3.51c-0.55,1.49-0.83,3.24-0.83,5.23
		c0,1.31,0.14,2.51,0.39,3.63c3.31,1.82,6.55,3.75,9.71,5.8c0.42-0.19,0.82-0.41,1.19-0.69c1.08-0.84,1.89-2.03,2.45-3.57
		C1087.72,788.62,1088.01,786.86,1088.04,784.87z"/>
	<path class="st1" d="M972.49,1124.91c-1.08-0.84-2.42-1.26-4.03-1.26c-1.58,0-2.91,0.42-3.98,1.26c-1.08,0.84-1.9,2.01-2.45,3.51
		c-0.55,1.49-0.83,3.24-0.83,5.23c0,1.94,0.28,3.67,0.83,5.19c0.55,1.52,1.37,2.7,2.45,3.55c1.08,0.84,2.41,1.27,3.98,1.27
		c1.6,0,2.95-0.42,4.03-1.27c1.08-0.84,1.89-2.03,2.45-3.57c0.55-1.54,0.84-3.3,0.87-5.29c-0.03-1.94-0.32-3.65-0.87-5.13
		C974.38,1126.91,973.57,1125.75,972.49,1124.91z"/>
	<path class="st1" d="M916.37,1075.1c-1.08-0.84-2.42-1.26-4.03-1.26c-1.58,0-2.91,0.42-3.98,1.26c-1.08,0.84-1.9,2.01-2.45,3.51
		c-0.55,1.49-0.83,3.24-0.83,5.23c0,1.94,0.28,3.67,0.83,5.19c0.55,1.52,1.37,2.7,2.45,3.55c1.08,0.84,2.41,1.27,3.98,1.27
		c1.6,0,2.95-0.42,4.03-1.27c1.08-0.84,1.89-2.03,2.45-3.57c0.55-1.54,0.84-3.3,0.87-5.29c-0.03-1.94-0.32-3.65-0.87-5.13
		C918.26,1077.11,917.45,1075.94,916.37,1075.1z"/>
	<path class="st1" d="M1062.76,1075.1c-1.08-0.84-2.42-1.26-4.02-1.26c-1.58,0-2.91,0.42-3.98,1.26c-1.08,0.84-1.9,2.01-2.45,3.51
		c-0.55,1.49-0.83,3.24-0.83,5.23c0,1.94,0.28,3.67,0.83,5.19c0.55,1.52,1.37,2.7,2.45,3.55c1.08,0.84,2.41,1.27,3.98,1.27
		c1.6,0,2.95-0.42,4.02-1.27c1.08-0.84,1.89-2.03,2.45-3.57c0.55-1.54,0.84-3.3,0.87-5.29c-0.03-1.94-0.32-3.65-0.87-5.13
		C1064.66,1077.11,1063.84,1075.94,1062.76,1075.1z"/>
	<path class="st1" d="M1096.92,1075.1c-1.08-0.84-2.42-1.26-4.02-1.26c-1.58,0-2.91,0.42-3.98,1.26c-1.08,0.84-1.9,2.01-2.45,3.51
		c-0.55,1.49-0.83,3.24-0.83,5.23c0,1.94,0.28,3.67,0.83,5.19c0.55,1.52,1.37,2.7,2.45,3.55c1.08,0.84,2.41,1.27,3.98,1.27
		c1.6,0,2.95-0.42,4.02-1.27c1.08-0.84,1.89-2.03,2.45-3.57c0.55-1.54,0.84-3.3,0.87-5.29c-0.03-1.94-0.32-3.65-0.87-5.13
		C1098.81,1077.11,1098,1075.94,1096.92,1075.1z"/>
	<path class="st1" d="M760.23,1025.29c-0.19-0.15-0.41-0.27-0.62-0.4l1.08,3.33l1.83,0.2
		C761.97,1027.12,761.22,1026.07,760.23,1025.29z"/>
	<path class="st1" d="M1153.03,1075.1c-1.08-0.84-2.42-1.26-4.03-1.26c-1.58,0-2.91,0.42-3.98,1.26c-1.08,0.84-1.9,2.01-2.45,3.51
		c-0.55,1.49-0.83,3.24-0.83,5.23c0,1.94,0.28,3.67,0.83,5.19c0.55,1.52,1.37,2.7,2.45,3.55c1.08,0.84,2.41,1.27,3.98,1.27
		c1.6,0,2.95-0.42,4.03-1.27c1.08-0.84,1.89-2.03,2.45-3.57c0.55-1.54,0.84-3.3,0.87-5.29c-0.03-1.94-0.32-3.65-0.87-5.13
		C1154.93,1077.11,1154.11,1075.94,1153.03,1075.1z"/>
	<path class="st1" d="M1046.53,774.99c-1.33,0-2.47,0.32-3.44,0.91c3.25,0.95,6.45,1.99,9.61,3.14c-0.53-1.15-1.24-2.09-2.14-2.79
		C1049.48,775.41,1048.14,774.99,1046.53,774.99z"/>
	<path class="st1" d="M886.4,743.92c1.08,0.84,2.41,1.27,3.98,1.27c1.6,0,2.95-0.42,4.03-1.27c1.08-0.84,1.89-2.03,2.45-3.57
		c0.55-1.54,0.84-3.3,0.87-5.29c-0.03-1.94-0.32-3.65-0.87-5.13c-0.55-1.48-1.37-2.64-2.45-3.49c-1.08-0.84-2.42-1.26-4.03-1.26
		c-1.58,0-2.91,0.42-3.98,1.26c-1.08,0.84-1.9,2.01-2.45,3.51c-0.55,1.49-0.83,3.24-0.83,5.23c0,1.94,0.28,3.67,0.83,5.19
		C884.51,741.89,885.32,743.08,886.4,743.92z"/>
	<path class="st1" d="M840.75,1089c0.55-1.54,0.84-3.3,0.87-5.29c-0.03-1.94-0.32-3.65-0.87-5.13c-0.55-1.48-1.37-2.64-2.45-3.49
		c-0.63-0.49-1.36-0.82-2.18-1.03l-4,19.46c0.66,0.21,1.37,0.31,2.15,0.31c1.6,0,2.95-0.42,4.03-1.27
		C839.38,1091.73,840.19,1090.54,840.75,1089z"/>
	<path class="st1" d="M886.4,793.73c1.08,0.84,2.41,1.27,3.98,1.27c1.6,0,2.95-0.42,4.03-1.27c1.08-0.84,1.89-2.03,2.45-3.57
		c0.55-1.54,0.84-3.3,0.87-5.29c-0.03-1.94-0.32-3.64-0.87-5.13c-0.55-1.48-1.37-2.64-2.45-3.49c-1.08-0.84-2.42-1.27-4.03-1.27
		c-1.58,0-2.91,0.42-3.98,1.27c-1.08,0.84-1.9,2.01-2.45,3.51c-0.55,1.49-0.83,3.24-0.83,5.23c0,1.94,0.28,3.67,0.83,5.19
		C884.51,791.7,885.32,792.88,886.4,793.73z"/>
	<path class="st1" d="M896.16,1039.22c0.55,1.52,1.37,2.7,2.45,3.55c1.08,0.84,2.41,1.27,3.98,1.27c0.3,0,0.59-0.03,0.87-0.06
		c-2.69-2.16-5.3-4.41-7.83-6.75C895.76,1037.92,895.93,1038.59,896.16,1039.22z"/>
	<path class="st1" d="M872.46,1025.29c-1.08-0.84-2.42-1.27-4.03-1.27c-1.58,0-2.91,0.42-3.98,1.27c-1.08,0.84-1.9,2.01-2.45,3.51
		c-0.55,1.49-0.83,3.24-0.83,5.23c0,1.94,0.28,3.67,0.83,5.19c0.55,1.52,1.37,2.7,2.45,3.55c1.08,0.84,2.41,1.27,3.98,1.27
		c1.6,0,2.95-0.42,4.03-1.27c1.08-0.84,1.89-2.03,2.45-3.57c0.55-1.54,0.84-3.3,0.87-5.29c-0.03-1.94-0.32-3.64-0.87-5.13
		C874.35,1027.3,873.54,1026.14,872.46,1025.29z"/>
	<path class="st1" d="M872.46,826.06c-1.08-0.84-2.42-1.26-4.03-1.26c-1.58,0-2.91,0.42-3.98,1.26c-1.08,0.84-1.9,2.01-2.45,3.51
		c-0.55,1.49-0.83,3.24-0.83,5.23c0,1.94,0.28,3.67,0.83,5.19c0.55,1.52,1.37,2.7,2.45,3.55c0.92,0.72,2.04,1.12,3.34,1.22
		c2.44-4.06,5.06-7.99,7.85-11.79c-0.13-1.23-0.34-2.4-0.72-3.42C874.35,828.07,873.54,826.91,872.46,826.06z"/>
	<path class="st1" d="M756.2,994.23c1.6,0,2.95-0.42,4.02-1.27c1.08-0.84,1.89-2.03,2.45-3.57c0.55-1.54,0.84-3.3,0.87-5.29
		c-0.03-1.94-0.32-3.65-0.87-5.13c-0.55-1.48-1.37-2.64-2.45-3.49c-1.08-0.84-2.42-1.26-4.02-1.26c-1.58,0-2.91,0.42-3.98,1.26
		c-1.08,0.84-1.9,2.01-2.45,3.51c-0.55,1.49-0.83,3.24-0.83,5.23c0,1.94,0.28,3.67,0.83,5.19c0.55,1.52,1.37,2.7,2.45,3.55
		C753.29,993.8,754.62,994.23,756.2,994.23z"/>
	<path class="st1" d="M974.93,939.58c0.55-1.54,0.84-3.3,0.87-5.29c-0.03-1.94-0.32-3.65-0.87-5.13c-0.55-1.48-1.37-2.64-2.45-3.49
		c-1.08-0.84-2.42-1.27-4.03-1.27c-1.58,0-2.91,0.42-3.98,1.27c-1.08,0.84-1.9,2.01-2.45,3.51c-0.55,1.49-0.83,3.24-0.83,5.23
		c0,1.94,0.28,3.67,0.83,5.19c0.55,1.52,1.37,2.7,2.45,3.55c1.08,0.84,2.41,1.27,3.98,1.27c1.6,0,2.95-0.42,4.03-1.27
		C973.57,942.31,974.38,941.12,974.93,939.58z"/>
	<path class="st1" d="M907.58,892.63c0.24,0.26,0.5,0.5,0.78,0.71c1.08,0.84,2.41,1.27,3.98,1.27c1.6,0,2.95-0.42,4.03-1.27
		c1.08-0.84,1.89-2.03,2.45-3.57c0.55-1.54,0.84-3.3,0.87-5.29c-0.03-1.94-0.32-3.65-0.87-5.13c-0.55-1.48-1.37-2.64-2.45-3.49
		c-0.59-0.46-1.27-0.79-2.02-0.99C911.48,880.59,909.21,886.51,907.58,892.63z"/>
	<path class="st1" d="M984.69,1025.29c-1.08-0.84-2.42-1.27-4.03-1.27c-1.58,0-2.91,0.42-3.98,1.27c-1.08,0.84-1.9,2.01-2.45,3.51
		c-0.55,1.49-0.83,3.24-0.83,5.23c0,1.94,0.28,3.67,0.83,5.19c0.55,1.52,1.37,2.7,2.45,3.55c1.08,0.84,2.41,1.27,3.98,1.27
		c1.6,0,2.95-0.42,4.03-1.27c1.08-0.84,1.89-2.03,2.45-3.57c0.55-1.54,0.84-3.3,0.87-5.29c-0.03-1.94-0.32-3.64-0.87-5.13
		C986.58,1027.3,985.77,1026.14,984.69,1025.29z"/>
	<path class="st1" d="M1086.46,879.38c-0.55,1.49-0.83,3.24-0.83,5.23c0,1.94,0.28,3.67,0.83,5.19c0.55,1.52,1.37,2.7,2.45,3.55
		c1.08,0.84,2.41,1.27,3.98,1.27c0.07,0,0.13-0.01,0.2-0.01c-1.37-5.83-3.3-11.46-5.82-16.86
		C1086.96,878.23,1086.69,878.77,1086.46,879.38z"/>
	<path class="st1" d="M1076.71,943.15c1.08,0.84,2.41,1.27,3.98,1.27c1.6,0,2.95-0.42,4.03-1.27c1.08-0.84,1.89-2.03,2.45-3.57
		c0.55-1.54,0.84-3.3,0.87-5.29c-0.03-1.94-0.32-3.65-0.87-5.13c-0.55-1.48-1.37-2.64-2.45-3.49c-1.08-0.84-2.42-1.27-4.03-1.27
		c-1.58,0-2.91,0.42-3.98,1.27c-1.08,0.84-1.9,2.01-2.45,3.51c-0.55,1.49-0.83,3.24-0.83,5.23c0,1.94,0.28,3.67,0.83,5.19
		C1074.81,941.13,1075.63,942.31,1076.71,943.15z"/>
	<path class="st1" d="M1042.55,925.68c-1.08,0.84-1.9,2.01-2.45,3.51c-0.55,1.49-0.83,3.24-0.83,5.23c0,1.94,0.28,3.67,0.83,5.19
		c0.55,1.52,1.37,2.7,2.45,3.55c1.08,0.84,2.41,1.27,3.98,1.27c1.6,0,2.95-0.42,4.03-1.27c1.08-0.84,1.89-2.03,2.45-3.57
		c0.55-1.54,0.84-3.3,0.87-5.29c-0.03-1.94-0.32-3.65-0.87-5.13c-0.55-1.48-1.37-2.64-2.45-3.49c-1.08-0.84-2.42-1.27-4.03-1.27
		C1044.95,924.41,1043.63,924.83,1042.55,925.68z"/>
	<path class="st1" d="M1042.55,992.96c1.08,0.84,2.41,1.27,3.98,1.27c1.6,0,2.95-0.42,4.03-1.27c1.08-0.84,1.89-2.03,2.45-3.57
		c0.55-1.54,0.84-3.3,0.87-5.29c-0.03-1.94-0.32-3.65-0.87-5.13c-0.55-1.48-1.37-2.64-2.45-3.49c-1.08-0.84-2.42-1.26-4.03-1.26
		c-1.58,0-2.91,0.42-3.98,1.26c-1.08,0.84-1.9,2.01-2.45,3.51c-0.55,1.49-0.83,3.24-0.83,5.23c0,1.94,0.28,3.67,0.83,5.19
		C1040.65,990.93,1041.47,992.11,1042.55,992.96z"/>
	<path class="st1" d="M994.44,975.48c-1.08-0.84-2.42-1.26-4.02-1.26c-1.58,0-2.91,0.42-3.98,1.26c-1.08,0.84-1.9,2.01-2.45,3.51
		c-0.55,1.49-0.83,3.24-0.83,5.23c0,1.94,0.28,3.67,0.83,5.19c0.55,1.52,1.37,2.7,2.45,3.55c1.08,0.84,2.41,1.27,3.98,1.27
		c1.6,0,2.95-0.42,4.02-1.27c1.08-0.84,1.89-2.03,2.45-3.57c0.55-1.54,0.84-3.3,0.87-5.29c-0.03-1.94-0.32-3.65-0.87-5.13
		C996.34,977.49,995.52,976.33,994.44,975.48z"/>
	<path class="st1" d="M1062.76,875.87c-1.08-0.84-2.42-1.27-4.02-1.27c-1.58,0-2.91,0.42-3.98,1.27c-1.08,0.84-1.9,2.01-2.45,3.51
		c-0.55,1.49-0.83,3.24-0.83,5.23c0,1.94,0.28,3.67,0.83,5.19c0.55,1.52,1.37,2.7,2.45,3.55c1.08,0.84,2.41,1.27,3.98,1.27
		c1.6,0,2.95-0.42,4.02-1.27c1.08-0.84,1.89-2.03,2.45-3.57c0.55-1.54,0.84-3.3,0.87-5.29c-0.03-1.94-0.32-3.65-0.87-5.13
		C1064.66,877.88,1063.84,876.71,1062.76,875.87z"/>
	<path class="st1" d="M1021.3,1039.2c0.55-1.54,0.84-3.3,0.87-5.29c-0.03-1.94-0.32-3.64-0.87-5.13c-0.55-1.48-1.37-2.64-2.45-3.49
		c-1.08-0.84-2.42-1.27-4.02-1.27c-1.58,0-2.91,0.42-3.98,1.27c-1.08,0.84-1.9,2.01-2.45,3.51c-0.55,1.49-0.83,3.24-0.83,5.23
		c0,1.94,0.28,3.67,0.83,5.19c0.55,1.52,1.37,2.7,2.45,3.55c1.08,0.84,2.41,1.27,3.98,1.27c1.6,0,2.95-0.42,4.02-1.27
		C1019.93,1041.92,1020.74,1040.73,1021.3,1039.2z"/>
	<path class="st1" d="M1028.6,1075.1c-1.08-0.84-2.42-1.26-4.02-1.26c-1.58,0-2.91,0.42-3.98,1.26c-1.08,0.84-1.9,2.01-2.45,3.51
		c-0.55,1.49-0.83,3.24-0.83,5.23c0,1.94,0.28,3.67,0.83,5.19c0.55,1.52,1.37,2.7,2.45,3.55c1.08,0.84,2.41,1.27,3.98,1.27
		c1.6,0,2.95-0.42,4.02-1.27c1.08-0.84,1.89-2.03,2.45-3.57c0.55-1.54,0.84-3.3,0.87-5.29c-0.03-1.94-0.32-3.65-0.87-5.13
		C1030.5,1077.11,1029.68,1075.94,1028.6,1075.1z"/>
	<path d="M432.06,1309.04l-28.43-38.06h-11.4v64.94h12.8v-44.19c6.8,9.94,19.27,27.27,23.97,33.78l0.63,0.87h4.78l0.62-0.92
		c1.97-2.89,15.41-22.7,22.58-33.64l-0.05,44.09h13.5v-64.94h-12.5L432.06,1309.04z"/>
	<path d="M520.69,1270.98l-35.49,64.94h14.83l7.77-14.95h38.53l7.77,14.95h16.03L534,1270.98H520.69z M514.23,1309l12.88-24.46
		l12.88,24.46H514.23z"/>
	<polygon points="656.05,1270.98 633.57,1270.98 598.43,1295.11 598.43,1270.98 584.1,1270.98 584.1,1335.93 598.43,1335.93 
		598.43,1310.46 636.29,1335.93 660.99,1335.93 608.87,1302.14 	"/>
	<polygon points="684.23,1308.26 713.78,1308.26 713.78,1296.06 684.23,1296.06 684.23,1283.31 732.61,1283.31 732.61,1270.98 
		669.91,1270.98 669.91,1335.93 733.08,1335.93 733.08,1323.36 684.23,1323.36 	"/>
	<path d="M810.44,1311.47c3.91-1.12,8.56-4.29,8.56-13.08v-13.54c0-4.85-1.29-8.44-3.84-10.65c-2.46-2.14-6.2-3.22-11.09-3.22
		h-51.07v64.94h14.33v-23.66h14.95l24.72,23.66h21.62l-27.83-23.7C807.42,1312.1,809.47,1311.77,810.44,1311.47z M767.33,1300.18
		v-17.1h32.74c2.55,0,3.44,0.56,3.69,0.8c0.24,0.22,0.8,0.99,0.8,3.34v8.83c0,2.5-0.58,3.21-0.76,3.37
		c-0.27,0.23-1.15,0.77-3.73,0.77H767.33z"/>
	<path d="M936.26,1270.98h-34.02c-6.13,0-10.3,1.19-12.73,3.62c-2.44,2.43-3.62,6.64-3.62,12.84v32.02c0,6.21,1.18,10.41,3.62,12.84
		c2.43,2.44,6.6,3.62,12.73,3.62h34.02c6.22,0,10.4-1.19,12.76-3.65c2.33-2.43,3.47-6.62,3.47-12.81v-8.89l-14.32-3v15.67h-37.94
		v-39.82h37.94v14.2l14.32-2.67v-1.75c0-11.17-0.85-14.31-1.49-15.72C948.98,1273.17,944.02,1270.98,936.26,1270.98z"/>
	<polygon points="989.33,1270.98 975,1270.98 975,1335.93 1035.35,1335.93 1035.35,1323.25 989.33,1323.25 	"/>
	<path d="M1100.25,1323.25h-40.05v-52.26h-14.33v48.48c0,6.21,1.18,10.41,3.62,12.84c2.43,2.44,6.6,3.62,12.73,3.62h36.02
		c6.14,0,10.29-1.19,12.68-3.63c2.38-2.43,3.54-6.63,3.54-12.83v-48.48h-14.21V1323.25z"/>
	<path d="M1202.54,1302.34c4.29-2.53,5.37-6.79,5.37-10.42v-7.06c0-4.85-1.29-8.44-3.84-10.65c-2.46-2.14-6.2-3.22-11.09-3.22
		h-51.07v64.94h47.42c15.65,0,18.93-7.61,18.93-13.99v-7.77C1208.26,1308.65,1206.31,1304.65,1202.54,1302.34z M1156.24,1283.31
		h32.97c2.39,0,3.31,0.45,3.58,0.64c0.19,0.13,0.56,0.83,0.56,2.56v6.12c0,1.68-0.32,3.31-4.14,3.31h-32.97V1283.31z
		 M1193.82,1318.29c0,2.89-0.62,3.9-0.88,4.19c-0.24,0.27-1.08,0.88-3.73,0.88h-32.97v-15.33h32.97c2.63,0,3.47,0.64,3.7,0.91
		c0.34,0.4,0.91,1.48,0.91,4.29V1318.29z"/>
	<polygon class="st1" points="1290.43,1270.98 1276.1,1270.98 1276.1,1335.93 1336.45,1335.93 1336.45,1323.25 1290.43,1323.25 	"/>
	<polygon class="st1" points="1367.29,1308.26 1396.83,1308.26 1396.83,1296.06 1367.29,1296.06 1367.29,1283.31 1415.67,1283.31 
		1415.67,1270.98 1352.96,1270.98 1352.96,1335.93 1416.14,1335.93 1416.14,1323.36 1367.29,1323.36 	"/>
	<polygon class="st1" points="1491.4,1244.5 1475.58,1244.5 1461.05,1268.71 1471.89,1268.71 	"/>
	<path class="st1" d="M1493.6,1270.98h-42.02c-6.13,0-10.3,1.19-12.73,3.62c-2.44,2.43-3.62,6.64-3.62,12.84v32.02
		c0,6.21,1.18,10.41,3.62,12.84c2.43,2.44,6.6,3.62,12.73,3.62h42.02c6.14,0,10.29-1.19,12.69-3.63c2.38-2.43,3.54-6.63,3.54-12.83
		v-32.02c0-6.2-1.16-10.39-3.54-12.83C1503.89,1272.17,1499.75,1270.98,1493.6,1270.98z M1495.62,1323.25h-46.06v-39.82h46.06
		V1323.25z"/>
	<path class="st1" d="M1594.26,1270.98v36.82c0,2.47,0.07,4.8,0.21,6.96c-0.92-0.97-1.83-1.85-2.71-2.64l-46.03-41.14h-9.26v64.94
		h13.5v-38.71c0-2.14-0.05-4.19-0.15-6.13c0.76,0.81,1.44,1.49,2.05,2.03l47.33,42.8h8.56v-64.94H1594.26z"/>
</g>
</svg>
